<svg width="23" height="23" viewBox="0 0 23 23" fill="none" xmlns="http://www.w3.org/2000/svg">
<path d="M17.0178 1.19415C17.2783 1.19415 17.5387 1.29347 17.7375 1.49222L21.3633 5.11597L21.3631 5.11646C21.753 5.51122 21.7552 6.14487 21.3703 6.54242L19.6171 8.29559L14.5554 3.23459L16.3089 1.48102C16.5064 1.28982 16.7621 1.19415 17.0178 1.19415ZM11.235 8.2244C11.1532 8.2244 11.0748 8.25688 11.017 8.31473L10.6039 8.72781C10.5461 8.78561 10.5136 8.86407 10.5136 8.94583C10.5136 9.02752 10.5461 9.1059 10.6039 9.16364C10.6039 9.16359 10.604 9.1637 10.6039 9.16364L11.0172 9.57623C11.0773 9.63626 11.1561 9.66629 11.2349 9.66629C11.3137 9.66629 11.3926 9.63621 11.4528 9.57599L11.8652 9.16364C11.9854 9.04334 11.9856 8.84832 11.8654 8.72797L11.453 8.31488C11.453 8.31496 11.4529 8.31487 11.453 8.31488C11.3952 8.25713 11.3167 8.22447 11.235 8.2244ZM17.0186 0C16.4556 0 15.8927 0.213265 15.4613 0.63974L13.0837 3.01837C12.9636 3.13872 12.9637 3.33363 13.0839 3.45383L19.3974 9.76801C19.4576 9.82793 19.5365 9.85794 19.6153 9.85794C19.6942 9.85794 19.773 9.82792 19.8332 9.76782L22.2116 7.39008C23.0657 6.52626 23.0646 5.13488 22.2081 4.27271L18.5845 0.648346L18.5775 0.641479C18.1459 0.213829 17.5823 0 17.0186 0ZM9.71574 9.74634C9.63397 9.74634 9.55554 9.77881 9.49771 9.83661L6.58692 12.7475C6.52907 12.8053 6.49661 12.8837 6.49663 12.9655C6.49667 13.0472 6.52915 13.1255 6.58692 13.1833C6.58686 13.1832 6.58697 13.1833 6.58692 13.1833L6.99754 13.5932C7.05769 13.6533 7.13647 13.6833 7.21526 13.6833C7.29413 13.6833 7.37299 13.6532 7.43317 13.593L10.3433 10.6829C10.4635 10.5626 10.4637 10.3676 10.3435 10.2473L9.9337 9.83682C9.93375 9.8369 9.93364 9.83677 9.9337 9.83682C9.87593 9.7791 9.79742 9.7464 9.71574 9.74634ZM12.1662 5.62695L17.2241 10.6856L7.44557 20.4673L1.31108 21.5403L2.38411 15.4059L12.1662 5.62695ZM12.1659 4.06293C12.0842 4.06298 12.0058 4.09549 11.9481 4.15329L1.4066 14.6948C1.31284 14.7886 1.25798 14.9045 1.23928 15.0267L0.00346599 22.0838C-0.00977401 22.1714 0.0149256 22.2638 0.0774406 22.3343C0.0872356 22.3454 0.0930961 22.3513 0.0930961 22.3513L0.500292 22.7592C0.506412 22.7647 0.512331 22.7713 0.518496 22.7764C0.576906 22.8262 0.649313 22.8513 0.721438 22.8513C0.736898 22.8513 0.752332 22.8502 0.767657 22.8479L7.82477 21.612C7.94691 21.5934 8.06276 21.5385 8.15653 21.4447L18.6974 10.904C18.7578 10.8436 18.7879 10.765 18.7881 10.6863C18.7888 10.6039 18.7562 10.5255 18.6984 10.4677L12.3851 4.15439V4.15536L12.3837 4.15295C12.3259 4.09515 12.2477 4.06293 12.1659 4.06293Z" fill="white"/>
</svg>
