<svg width="17" height="24" viewBox="0 0 17 24" fill="none" xmlns="http://www.w3.org/2000/svg">
<path fill-rule="evenodd" clip-rule="evenodd" d="M4.5 7.125C4.91421 7.125 5.25 7.46079 5.25 7.875C5.25 8.28921 4.91421 8.625 4.5 8.625L1.87512 8.625C1.66766 8.625 1.5 8.79286 1.5 9.00244L1.5 21.7476C1.5 21.9566 1.66821 22.125 1.87744 22.125L14.6226 22.125C14.8316 22.125 15 21.9568 15 21.7476L15 9.00244C15 8.79454 14.8306 8.625 14.6249 8.625H12C11.5858 8.625 11.25 8.28921 11.25 7.875C11.25 7.46079 11.5858 7.125 12 7.125L14.6249 7.125C15.6593 7.125 16.5 7.96639 16.5 9.00244V21.7476C16.5 22.7855 15.6598 23.625 14.6226 23.625L1.87744 23.625C0.839493 23.625 0 22.7848 0 21.7476L0 9.00244C0 7.96484 0.838836 7.125 1.87512 7.125H4.5ZM7.60588 17.9284L3.23281 13.4994C2.52698 12.7921 3.58573 11.7315 4.29119 12.4388L7.2388 15.3951C7.38345 15.5401 7.50151 15.4922 7.50151 15.2869L7.50151 0.749969C7.50151 0.334295 7.83663 0 8.25001 0C8.66628 0 8.99851 0.335773 8.99851 0.749969L8.99851 15.2869C8.99851 15.4933 9.11613 15.5406 9.26123 15.3951L12.2088 12.4388C12.9147 11.7315 13.973 12.7921 13.2672 13.4994L8.92285 17.9231C8.55788 18.2948 7.96911 18.2962 7.60588 17.9284Z" fill="#EEEEEE"/>
</svg>
