<svg width="33" height="60" viewBox="0 0 33 60" fill="none" xmlns="http://www.w3.org/2000/svg">
<path d="M0.113525 55.5873C0.114746 55.8095 0.233154 56.0146 0.424805 56.1257C0.551349 56.1992 6.2724 59.5228 6.14586 59.4493L6.14746 59.4509C6.34027 59.5619 6.57837 59.5613 6.77124 59.4502L32.4206 44.6419C32.6147 44.5296 32.7344 44.3227 32.7331 44.0987L32.6184 3.94669C32.6174 3.76659 32.4322 3.4809 32.3071 3.40836L32.3057 3.40752C30.7659 2.51255 26.3448 -0.0570591 26.5881 0.0843818C26.3977 -0.027923 26.1572 -0.0279229 25.9619 0.0831611L21.6138 2.59354C21.3147 2.76627 21.2122 3.14835 21.3855 3.44742C21.5576 3.7471 21.9397 3.84781 22.2388 3.6763L26.2732 1.34659L30.7467 3.94646L6.34483 18.0346C6.20408 17.9528 1.63928 15.3005 1.87134 15.4353L13.3923 8.78373C13.6914 8.611 13.7939 8.22892 13.6206 7.92984C13.4485 7.62894 13.0652 7.52884 12.7673 7.70096L0.3125 14.8921C0.117093 15.0053 0 15.2134 0 15.4329L0.000305176 15.4341L0 15.4353L0.113525 55.5873ZM1.3623 55.2254L1.25366 16.5213C1.37896 16.5941 6.01157 19.2863 5.71998 19.1168C5.74593 28.2374 5.8035 48.4785 5.83008 57.8212L1.3623 55.2254ZM7.08069 57.8276C7.07054 54.2728 6.98494 24.2775 6.97021 19.1171C12.6991 15.8097 25.5726 8.3776 31.3721 5.02945L31.4819 43.7404L7.08069 57.8276Z" fill="white"/>
<path d="M16.3757 7.06132L19.5386 5.23515C19.8376 5.06242 19.9402 4.68034 19.7668 4.38126C19.5947 4.08097 19.2114 3.98087 18.9136 4.15238L15.7507 5.97855C15.4517 6.15128 15.3491 6.53336 15.5225 6.83244C15.6926 7.13019 16.0749 7.234 16.3757 7.06132Z" fill="white"/>
<path d="M27.9944 14.648L17.5879 20.6563C17.2888 20.829 17.1863 21.2111 17.3596 21.5102C17.5298 21.8079 17.9121 21.9117 18.2129 21.7391L28.6194 15.7307C28.9184 15.558 29.021 15.1759 28.8476 14.8769C28.6755 14.5766 28.2922 14.4759 27.9944 14.648Z" fill="white"/>
<path d="M27.9944 25.901L17.5879 31.9087C17.2888 32.0815 17.1863 32.4635 17.3596 32.7626C17.5298 33.0604 17.9121 33.1642 18.2129 32.9915L28.6194 26.9838C28.9184 26.8111 29.021 26.429 28.8476 26.1299C28.6755 25.8296 28.2922 25.7289 27.9944 25.901Z" fill="white"/>
<path d="M27.9944 37.1535L17.5879 43.1618C17.2888 43.3345 17.1863 43.7166 17.3596 44.0157C17.5298 44.3134 17.9121 44.4173 18.2129 44.2446L28.6194 38.2363C28.9184 38.0635 29.021 37.6815 28.8476 37.3824C28.6755 37.0821 28.2922 36.9802 27.9944 37.1535Z" fill="white"/>
<path d="M10.1624 29.1371C10.2698 29.1371 10.3784 29.109 10.4749 29.0535L15.6384 26.0725C15.8325 25.9602 15.9522 25.7533 15.9509 25.5293L15.9338 19.6053C15.9326 19.3825 15.8142 19.1768 15.6201 19.0651C15.4273 18.954 15.1892 18.9546 14.9963 19.0657L9.83277 22.0467C9.63868 22.159 9.51905 22.3659 9.52027 22.5899L9.53736 28.5139C9.53926 28.8599 9.81913 29.1371 10.1624 29.1371ZM14.6875 20.688L14.6997 25.1711L10.7837 27.4312L10.7715 22.9482L14.6875 20.688Z" fill="white"/>
<path d="M9.8816 40.013C9.97804 40.0685 10.0855 40.096 10.1929 40.096C10.3003 40.096 10.4089 40.0679 10.5054 40.0124L15.669 37.0314C15.863 36.9191 15.9827 36.7122 15.9815 36.4882L15.9644 30.555C15.9631 30.3322 15.8447 30.1265 15.6506 30.0148C15.4578 29.9037 15.2197 29.9044 15.0269 30.0154L9.86329 32.9964C9.6692 33.1087 9.54957 33.3156 9.55079 33.5396L9.56788 39.4728C9.5691 39.6956 9.68751 39.9013 9.8816 40.013ZM14.718 31.6378L14.7302 36.1299L10.8142 38.3901L10.802 33.8979L14.718 31.6378Z" fill="white"/>
<path d="M15.6824 40.9737C15.4895 40.8626 15.2515 40.8632 15.0586 40.9743L9.89503 43.9553C9.70094 44.0676 9.58131 44.2745 9.58253 44.4985L9.59962 50.4225C9.60084 50.6453 9.71925 50.851 9.91334 50.9627C10.1061 51.0738 10.3442 51.0732 10.5371 50.9621L15.7007 47.9811C15.8948 47.8688 16.0144 47.6619 16.0132 47.4379L15.9961 41.5139C15.9949 41.2911 15.8765 41.0854 15.6824 40.9737ZM10.846 49.3398L10.8337 44.8568L14.7498 42.5966L14.762 47.0797L10.846 49.3398Z" fill="white"/>
</svg>
